<svg aria-hidden="true" style="dasplay: absolute; width: 0; height: 0; overflow: hidden;" version="1.1" xmlns="http://www.w3.org/2000/svg" xmlns:xlink="http://www.w3.org/1999/xlink">
<defs>
<symbol id="icon-ea" viewBox="0 0 32 32" width="25" height="25" fill="#fe1e3c" stroke="none">
<path d="M13.227 0.080c0 0.043 0.043 0.080 0.096 0.085 0.155 0.005-0.096 0.091-0.283 0.101-0.203 0.005-1.525 0.336-1.947 0.485-1.445 0.512-3.083 1.285-3.733 1.765-0.075 0.053-0.411 0.299-0.752 0.539-1.989 1.403-3.867 3.616-4.965 5.851-0.32 0.661-0.667 1.493-0.789 1.893-0.053 0.176-0.117 0.379-0.149 0.453-0.053 0.133-0.080 0.235-0.24 0.88-0.048 0.176-0.107 0.421-0.139 0.539-0.032 0.123-0.059 0.304-0.059 0.405 0 0.171-0.011 0.187-0.133 0.16l-0.133-0.021v5.595l0.123-0.005c0.091-0.005 0.123 0.027 0.133 0.128 0.096 0.955 0.752 2.907 1.435 4.293 0.336 0.677 1.141 1.995 1.36 2.219 0.037 0.043 0.112 0.144 0.165 0.224 0.32 0.496 1.44 1.696 2.283 2.443 0.939 0.832 2.411 1.808 3.531 2.336 0.315 0.149 0.581 0.272 0.597 0.272 0.011 0 0.149 0.059 0.304 0.128s0.389 0.165 0.523 0.208c0.133 0.043 0.299 0.107 0.373 0.133s0.24 0.080 0.373 0.117c0.133 0.037 0.288 0.085 0.347 0.112 0.176 0.075 1.44 0.368 1.584 0.368 0.096 0 0.133 0.027 0.128 0.096-0.005 0.085 0.165 0.091 2.763 0.107 2.181 0.011 2.779 0 2.816-0.053 0.027-0.048-0.005-0.080-0.107-0.101-0.123-0.032-0.117-0.037 0.069-0.043 0.117-0.005 0.416-0.059 0.667-0.117s0.539-0.128 0.64-0.149c0.859-0.197 2.789-0.96 3.547-1.403 0.059-0.032 0.277-0.16 0.48-0.277 0.208-0.123 0.437-0.261 0.507-0.315 0.075-0.053 0.256-0.176 0.405-0.267 0.144-0.096 0.336-0.224 0.427-0.293 0.085-0.069 0.299-0.235 0.475-0.368 0.315-0.235 1.019-0.859 1.413-1.259 1.147-1.141 2.24-2.645 2.944-4.037 0.341-0.688 0.789-1.739 0.789-1.877 0-0.037 0.037-0.117 0.080-0.171 0.043-0.059 0.080-0.16 0.080-0.224 0-0.112 0.043-0.24 0.165-0.528 0.027-0.059 0.069-0.229 0.101-0.373 0.027-0.149 0.101-0.443 0.16-0.661s0.107-0.496 0.112-0.613c0-0.187 0.011-0.203 0.048-0.101 0.144 0.352 0.16 0.048 0.16-2.757 0-2.464-0.011-2.88-0.075-2.88-0.043 0-0.091 0.064-0.101 0.144-0.016 0.112-0.021 0.091-0.032-0.069-0.005-0.208-0.288-1.44-0.373-1.648-0.027-0.059-0.075-0.213-0.112-0.347s-0.091-0.299-0.117-0.373c-0.027-0.075-0.091-0.24-0.133-0.373s-0.123-0.336-0.176-0.453-0.16-0.368-0.24-0.56c-0.187-0.448-0.736-1.504-0.827-1.6-0.016-0.016-0.064-0.091-0.107-0.171-0.165-0.293-0.805-1.205-1.173-1.669-1.211-1.515-2.779-2.864-4.507-3.877-0.795-0.464-2.037-1.029-2.773-1.248-0.144-0.048-0.336-0.117-0.427-0.155-0.267-0.117-1.243-0.363-1.808-0.453-0.283-0.043-0.464-0.107-0.309-0.107 0.037 0 0.064-0.037 0.064-0.080 0-0.069-0.341-0.080-2.773-0.080s-2.773 0.011-2.773 0.080zM18.693 9.851c-0.080 0.219-1.173 1.92-1.205 1.872-0.048-0.080-0.208 0.016-0.208 0.123 0 0.101-0.101 0.101-4.453 0.101-3.44-0.005-4.453-0.021-4.453-0.069 0-0.037 0.101-0.219 0.224-0.411s0.272-0.432 0.325-0.533c0.171-0.304 0.576-0.923 0.693-1.056l0.107-0.117h4.507c4.267 0 4.501 0.005 4.464 0.091zM20.843 10.037c0.064 0.128 0.256 0.448 0.421 0.72 1.136 1.813 1.6 2.56 2.149 3.429 0.341 0.544 0.667 1.067 0.725 1.163 0.123 0.203 1.189 1.915 1.621 2.597 0.171 0.261 0.613 0.971 0.987 1.573 0.379 0.603 0.72 1.147 0.763 1.211l0.075 0.123h-2.555l-0.629-1.003c-0.347-0.549-0.661-1.051-0.704-1.12l-0.069-0.117h-2c-1.099 0-2-0.011-2-0.027s0.048-0.096 0.101-0.176c0.053-0.080 0.245-0.373 0.421-0.651 0.171-0.277 0.427-0.683 0.56-0.896l0.251-0.384h0.64c0.352 0 0.64-0.021 0.64-0.043 0-0.027-0.304-0.539-0.677-1.141-0.379-0.603-0.715-1.147-0.752-1.211-0.080-0.139-0.176-0.144-0.256-0.021-0.037 0.053-0.592 0.949-1.248 1.989-0.651 1.040-1.237 1.979-1.301 2.080-0.187 0.283-1.312 2.091-1.515 2.427l-0.176 0.293h-5.76c-4.592 0-5.755-0.016-5.723-0.069 0.059-0.101 1.504-2.421 1.781-2.864 0.139-0.219 0.389-0.613 0.555-0.869 0.453-0.709 0.48-0.683-0.64-0.672-0.512 0.005-0.944-0.005-0.96-0.016-0.016-0.016 0.592-1.024 1.243-2.059 0.032-0.053 0.933-0.064 4.475-0.053l4.437 0.016-0.448 0.72c-0.827 1.323-0.853 1.365-0.96 1.371-0.053 0-1.003 0.005-2.107 0.011-1.456 0.011-2.032 0.032-2.091 0.075-0.043 0.037-0.315 0.448-0.603 0.917s-0.565 0.896-0.619 0.955c-0.112 0.123-0.176 0.293-0.123 0.341 0.043 0.043 5.963 0.080 6.187 0.037 0.139-0.021 0.224-0.133 0.661-0.843 0.277-0.443 0.555-0.896 0.619-0.997 0.416-0.651 0.896-1.413 1.088-1.733 0.123-0.208 0.368-0.603 0.549-0.88 0.176-0.277 0.539-0.853 0.8-1.28 0.267-0.427 0.597-0.955 0.736-1.173 0.272-0.427 0.779-1.232 1.061-1.696 0.096-0.149 0.192-0.277 0.213-0.277s0.091 0.101 0.155 0.224z"></path>
</symbol>
<svg id="icon-steam" width="25" height="25" fill="white" stroke="black" viewBox="0 0 50 50">
<path d="M 25 3 C 13.59 3 4.209375 11.680781 3.109375 22.800781 L 14.300781 28.529297 C 15.430781 27.579297 16.9 27 18.5 27 L 18.550781 27 C 18.940781 26.4 19.389375 25.649141 19.859375 24.869141 C 20.839375 23.259141 21.939531 21.439062 23.019531 20.039062 C 23.259531 15.569063 26.97 12 31.5 12 C 36.19 12 40 15.81 40 20.5 C 40 25.03 36.430937 28.740469 31.960938 28.980469 C 30.560938 30.060469 28.750859 31.160859 27.130859 32.130859 C 26.350859 32.610859 25.6 33.059219 25 33.449219 L 25 33.5 C 25 37.09 22.09 40 18.5 40 C 14.91 40 12 37.09 12 33.5 C 12 33.33 12.009531 33.17 12.019531 33 L 3.2792969 28.519531 C 4.9692969 38.999531 14.05 47 25 47 C 37.15 47 47 37.15 47 25 C 47 12.85 37.15 3 25 3 z M 31.5 14 C 27.92 14 25 16.92 25 20.5 C 25 24.08 27.92 27 31.5 27 C 35.08 27 38 24.08 38 20.5 C 38 16.92 35.08 14 31.5 14 z M 31.5 16 C 33.99 16 36 18.01 36 20.5 C 36 22.99 33.99 25 31.5 25 C 29.01 25 27 22.99 27 20.5 C 27 18.01 29.01 16 31.5 16 z M 18.5 29 C 17.71 29 16.960313 29.200312 16.320312 29.570312 L 19.640625 31.269531 C 20.870625 31.899531 21.350469 33.410625 20.730469 34.640625 C 20.280469 35.500625 19.41 36 18.5 36 C 18.11 36 17.729375 35.910469 17.359375 35.730469 L 14.029297 34.019531 C 14.289297 36.259531 16.19 38 18.5 38 C 20.99 38 23 35.99 23 33.5 C 23 31.01 20.99 29 18.5 29 z"></path>
</svg>
</defs>
</svg>
 